# xmcd
#
# Track frame offsets: 
#        150
#        15527
#        29749
#        44112
#        61521
#        79731
#        98818
#        112473
#        125448
#        137931
#        149617
#        159826
#
# Disc length: 2484 seconds
#
# Revision: 0
# Processed by: cddbd v1.5.2PL0 Copyright (c) Steve Scherf et al.
# Submitted via: ExactAudioCopy v1.0b4
#
DISCID=ac09b20c
DTITLE=Thomas Feldmann and Friends - Manatee County Blues
DYEAR=2018
DGENRE=Blues
TTITLE0=Red Tide
TTITLE1=I Wonder Why
TTITLE2=Hurricane
TTITLE3=Burnt Orange Baby
TTITLE4=Manatee Avenue
TTITLE5=I Need Money
TTITLE6=Off The Vine
TTITLE7=Stateroad 60 Blues
TTITLE8=Plobo Blues
TTITLE9=My Life Is Over
TTITLE10=Will You Bury Me
TTITLE11=Manatee Avenue Uncut
EXTD=
EXTT0=
EXTT1=
EXTT2=
EXTT3=
EXTT4=
EXTT5=
EXTT6=
EXTT7=
EXTT8=
EXTT9=
EXTT10=
EXTT11=
PLAYORDER=
